<svg xmlns="http://www.w3.org/2000/svg" viewBox="0 0 512 512">
  <defs>
    <radialGradient id="plate" cx="48%" cy="38%" r="70%">
      <stop offset="0%" stop-color="#24262b"/>
      <stop offset="62%" stop-color="#111316"/>
      <stop offset="100%" stop-color="#08090b"/>
    </radialGradient>
    <linearGradient id="gold" x1="120" y1="80" x2="392" y2="432">
      <stop offset="0%" stop-color="#fae7ca"/>
      <stop offset="45%" stop-color="#f1c27c"/>
      <stop offset="100%" stop-color="#8f6040"/>
    </linearGradient>
  </defs>
  <rect width="512" height="512" rx="104" fill="#08090b"/>
  <rect x="28" y="28" width="456" height="456" rx="82" fill="url(#plate)" stroke="#4a3424" stroke-width="10"/>
  <path d="M82 282c52-36 111-51 177-43 67 8 121 33 171 76" fill="none" stroke="#35261d" stroke-width="20" stroke-linecap="round"/>
  <path d="M83 224c56-34 117-45 183-34 63 11 116 39 163 83" fill="none" stroke="#f1c27c" stroke-width="10" stroke-linecap="round" opacity=".82"/>
  <path d="M132 124c20 3 31 14 31 32v195c0 21-11 34-33 38v16h120v-16c-25-4-36-17-36-38v-69l30-28 85 110c11 15 8 23-10 25v16h126v-16c-20-3-37-14-52-32l-111-143 85-78c18-16 36-26 56-30V96H305v16c19 3 23 11 11 24l-102 96v-76c0-18 11-29 33-32V96H132v28z" fill="url(#gold)"/>
  <path d="M132 124c20 3 31 14 31 32v195c0 21-11 34-33 38v16h120v-16c-25-4-36-17-36-38v-69l30-28 85 110c11 15 8 23-10 25v16h126v-16c-20-3-37-14-52-32l-111-143 85-78c18-16 36-26 56-30V96H305v16c19 3 23 11 11 24l-102 96v-76c0-18 11-29 33-32V96H132v28z" fill="none" stroke="#fff1dc" stroke-width="3" opacity=".35"/>
  <circle cx="395" cy="139" r="11" fill="#f1c27c" opacity=".9"/>
  <circle cx="431" cy="184" r="7" fill="#f1c27c" opacity=".62"/>
</svg>
